<svg width="135" height="28" viewBox="0 0 135 28" fill="none" xmlns="http://www.w3.org/2000/svg">
<g clip-path="url(#clip0_11253_4)">
<path d="M0.575348 28.0001H10.0685C14.57 28.0001 18.2192 24.3509 18.2192 19.8494H8.72603C4.22453 19.8494 0.575348 23.4986 0.575348 28.0001Z" fill="#F22BB2"/>
<path d="M1 8.15069V20.137C5.5015 20.137 9.15069 16.4878 9.15069 11.9863V0C4.64919 0 1 3.64919 1 8.15069Z" fill="#8C30F5"/>
<path d="M27.4247 0H17.9315C13.43 0 9.78082 3.64919 9.78082 8.15068H19.274C23.7755 8.15068 27.4247 4.5015 27.4247 0Z" fill="#FE9A22"/>
<path d="M27.4247 19.3698V7.38354C22.9232 7.38354 19.274 11.0327 19.274 15.5342V27.5205C23.7755 27.5205 27.4247 23.8713 27.4247 19.3698Z" fill="#2EC5CE"/>
</g>
<g filter="url(#filter0_d_11253_4)">
<path d="M46.6406 16.0976V5.46727H43V19.0959H52.329V16.0976H46.6406Z" fill="#0B0D17"/>
<path d="M63.9672 9.36117V10.2762C63.2163 9.5364 62.1014 9.0886 60.5769 9.0886C57.5961 9.0886 55.1387 11.3276 55.1387 14.2286C55.1387 17.1295 57.5961 19.3685 60.5769 19.3685C62.1014 19.3685 63.2163 18.9207 63.9672 18.1809V19.0959H67.3802V9.36117H63.9672ZM61.2595 16.6038C59.6895 16.6038 58.5518 15.6888 58.5518 14.2286C58.5518 12.7683 59.6895 11.8533 61.2595 11.8533C62.8295 11.8533 63.9672 12.7683 63.9672 14.2286C63.9672 15.6888 62.8295 16.6038 61.2595 16.6038Z" fill="#0B0D17"/>
<path d="M77.551 9.0886C76.0493 9.0886 74.9116 9.55587 74.2973 10.2762V9.36117H70.8842V19.0959H74.2973V13.7808C74.2973 12.3984 75.1619 11.7754 76.4134 11.7754C77.5055 11.7754 78.3929 12.34 78.3929 13.5471V19.0959H81.806V13.1188C81.806 10.4904 79.8492 9.0886 77.551 9.0886Z" fill="#0B0D17"/>
<path d="M93.0869 5.46727V10.2762C92.3361 9.5364 91.2211 9.0886 89.6966 9.0886C86.7159 9.0886 84.2585 11.3276 84.2585 14.2286C84.2585 17.1295 86.7159 19.3685 89.6966 19.3685C91.2211 19.3685 92.3361 18.9207 93.0869 18.1809V19.0959H96.5V5.46727H93.0869ZM90.3792 16.6038C88.8092 16.6038 87.6716 15.6888 87.6716 14.2286C87.6716 12.7683 88.8092 11.8533 90.3792 11.8533C91.9493 11.8533 93.0869 12.7683 93.0869 14.2286C93.0869 15.6888 91.9493 16.6038 90.3792 16.6038Z" fill="#0B0D17"/>
<path d="M101.716 8.50451C102.831 8.50451 103.763 7.70626 103.763 6.75226C103.763 5.79825 102.831 5 101.716 5C100.601 5 99.6677 5.79825 99.6677 6.75226C99.6677 7.70626 100.601 8.50451 101.716 8.50451ZM100.009 19.0959H103.422V9.36117H100.009V19.0959Z" fill="#0B0D17"/>
<path d="M113.5 8.27088V5.46727C109.723 5.27257 107.971 6.90801 107.971 9.63375H106.446V12.4374H107.971V19.3685H111.384V12.4374H113.5V9.63375H111.384C111.384 8.50451 112.226 8.17353 113.5 8.27088Z" fill="#0B0D17"/>
<path d="M124.919 9.36117L122.78 15.3188L120.254 9.36117H116.5L121.028 18.6481C120.527 19.8358 119.777 20.2641 118.184 20.2641V22.9898C121.369 23.1261 123.394 21.8995 124.669 18.8039L128.559 9.36117H124.919Z" fill="#0B0D17"/>
<path d="M52.329 15.5976H47.1406V5.46727V4.96727H46.6406H43H42.5V5.46727V19.0959V19.5959H43H52.329H52.829V19.0959V16.0976V15.5976H52.329ZM63.9672 8.86117H63.4672V9.27472C62.695 8.83018 61.7298 8.5886 60.5769 8.5886C57.3524 8.5886 54.6387 11.0201 54.6387 14.2286C54.6387 17.437 57.3524 19.8685 60.5769 19.8685C61.7298 19.8685 62.695 19.6269 63.4672 19.1824V19.5959H63.9672H67.3802H67.8802V19.0959V9.36117V8.86117H67.3802H63.9672ZM74.7973 9.23344V8.86117H74.2973H70.8842H70.3842V9.36117V19.0959V19.5959H70.8842H74.2973H74.7973V19.0959V13.7808C74.7973 13.1983 74.9754 12.8476 75.2167 12.6347C75.4686 12.4126 75.8636 12.2754 76.4134 12.2754C76.8802 12.2754 77.252 12.3967 77.4969 12.5962C77.7272 12.7839 77.8929 13.0784 77.8929 13.5471V19.0959V19.5959H78.3929H81.806H82.306V19.0959V13.1188C82.306 11.6704 81.7618 10.522 80.8695 9.74166C79.9859 8.969 78.7981 8.5886 77.551 8.5886C76.4718 8.5886 75.5256 8.81603 74.7973 9.23344ZM93.0869 4.96727H92.5869V5.46727V9.27472C91.8148 8.83018 90.8496 8.5886 89.6966 8.5886C86.4722 8.5886 83.7585 11.0201 83.7585 14.2286C83.7585 17.437 86.4722 19.8685 89.6966 19.8685C90.8496 19.8685 91.8148 19.6269 92.5869 19.1824V19.5959H93.0869H96.5H97V19.0959V5.46727V4.96727H96.5H93.0869ZM99.509 19.0959V19.5959H100.009H103.422H103.922V19.0959V9.36117V8.86117H103.422H102.595C103.532 8.54887 104.263 7.75398 104.263 6.75226C104.263 5.45183 103.031 4.5 101.716 4.5C100.4 4.5 99.1677 5.45183 99.1677 6.75226C99.1677 7.75398 99.8992 8.54887 100.836 8.86117H100.009H99.509V9.36117V19.0959ZM113.462 8.76943L114 8.81054V8.27088V5.46727V4.99238L113.526 4.96793C111.572 4.86723 110.05 5.23377 109.007 6.06431C108.071 6.81032 107.589 7.87681 107.49 9.13375H106.446H105.946V9.63375V12.4374V12.9374H106.446H107.471V19.3685V19.8685H107.971H111.384H111.884V19.3685V12.9374H113.5H114V12.4374V9.63375V9.13375H113.5H111.995C112.052 9.03901 112.128 8.97495 112.213 8.92624C112.45 8.79016 112.855 8.7231 113.462 8.76943ZM124.919 8.86117H124.567L124.448 9.19223L122.741 13.9467L120.715 9.16602L120.585 8.86117H120.254H116.5H115.7L116.051 9.5803L120.475 18.6556C120.275 19.0612 120.049 19.3073 119.768 19.4668C119.429 19.6597 118.945 19.7641 118.184 19.7641H117.684V20.2641V22.9898V23.4689L118.162 23.4894C119.823 23.5604 121.236 23.2782 122.411 22.5307C123.587 21.7832 124.467 20.6063 125.131 18.9944C125.131 18.9943 125.131 18.9943 125.131 18.9942L129.022 9.55166L129.306 8.86117H128.559H124.919ZM61.2595 16.1038C60.5687 16.1038 60.0147 15.9028 59.642 15.5839C59.2768 15.2714 59.0518 14.8186 59.0518 14.2286C59.0518 13.6385 59.2768 13.1857 59.642 12.8732C60.0147 12.5543 60.5687 12.3533 61.2595 12.3533C61.9503 12.3533 62.5042 12.5543 62.877 12.8732C63.2422 13.1857 63.4672 13.6385 63.4672 14.2286C63.4672 14.8186 63.2422 15.2714 62.877 15.5839C62.5042 15.9028 61.9503 16.1038 61.2595 16.1038ZM90.3792 16.1038C89.6885 16.1038 89.1345 15.9028 88.7617 15.5839C88.3966 15.2714 88.1716 14.8186 88.1716 14.2286C88.1716 13.6385 88.3966 13.1857 88.7617 12.8732C89.1345 12.5543 89.6885 12.3533 90.3792 12.3533C91.07 12.3533 91.624 12.5543 91.9968 12.8732C92.3619 13.1857 92.5869 13.6385 92.5869 14.2286C92.5869 14.8186 92.3619 15.2714 91.9968 15.5839C91.624 15.9028 91.07 16.1038 90.3792 16.1038Z" stroke="black"/>
</g>
<defs>
<filter id="filter0_d_11253_4" x="38" y="4" width="96.0531" height="28" filterUnits="userSpaceOnUse" color-interpolation-filters="sRGB">
<feFlood flood-opacity="0" result="BackgroundImageFix"/>
<feColorMatrix in="SourceAlpha" type="matrix" values="0 0 0 0 0 0 0 0 0 0 0 0 0 0 0 0 0 0 127 0" result="hardAlpha"/>
<feOffset dy="4"/>
<feGaussianBlur stdDeviation="2"/>
<feComposite in2="hardAlpha" operator="out"/>
<feColorMatrix type="matrix" values="0 0 0 0 0 0 0 0 0 0 0 0 0 0 0 0 0 0 0.25 0"/>
<feBlend mode="normal" in2="BackgroundImageFix" result="effect1_dropShadow_11253_4"/>
<feBlend mode="normal" in="SourceGraphic" in2="effect1_dropShadow_11253_4" result="shape"/>
</filter>
<clipPath id="clip0_11253_4">
<rect width="28" height="28" fill="white"/>
</clipPath>
</defs>
</svg>
